<svg id="Layer_8" data-name="Layer 8" xmlns="http://www.w3.org/2000/svg" viewBox="0 0 4096 4096"><defs><style>.cls-1{fill:#09f;}.cls-2{fill:#0065b3;}.cls-3{fill:#007fd9;}.cls-4{fill:#004a8c;}.cls-5{fill:#003066;}</style></defs><polygon class="cls-1" points="2558.4 1641.35 2048 1925.01 1537.6 1641.35 2048 683.92 2558.4 1641.35"/><polygon class="cls-2" points="2988.17 2447.53 2048 2976.31 1107.83 2447.53 2048 1925.01 2988.17 2447.53"/><polygon class="cls-3" points="2048 1925.01 1107.83 2447.53 1537.6 1641.35 2048 1925.01"/><polygon class="cls-2" points="974.27 2528.56 638.55 2715.71 760.22 2233.03 974.27 2528.56"/><polygon class="cls-4" points="2048.01 3416 638.55 2715.71 974.27 2528.56 2048.01 3416"/><polygon class="cls-3" points="2988.17 2447.53 2048 1925.01 2558.4 1641.35 2988.17 2447.53"/><polygon class="cls-5" points="3121.74 2528.56 2048.01 3416 974.27 2528.56 2048 3093.59 3121.74 2528.56"/><polygon class="cls-4" points="3457.46 2715.71 2048.01 3416 3121.74 2528.56 3457.46 2715.71"/><polygon class="cls-2" points="3457.46 2715.71 3121.74 2528.56 3335.79 2233.03 3457.46 2715.71"/></svg>